<?xml version="1.0" encoding="UTF-8"?><svg id="Laag_2" xmlns="http://www.w3.org/2000/svg" viewBox="0 0 113.6 30.15"><defs><style>.cls-1{fill:#fff;}</style></defs><g id="CTAC-White"><g><path class="cls-1" d="M5.16,28.76c-1.64-.93-2.91-2.24-3.81-3.94-.9-1.7-1.35-3.66-1.35-5.88v-7.75c0-2.22,.46-4.18,1.37-5.88,.91-1.7,2.2-3.01,3.87-3.94,1.67-.93,3.6-1.39,5.79-1.39h4.46c2.11,0,3.96,.45,5.56,1.35,1.6,.9,2.84,2.16,3.73,3.77,.88,1.61,1.33,3.49,1.33,5.62h-5.73c0-1.68-.45-3.04-1.35-4.06-.9-1.02-2.08-1.54-3.54-1.54h-4.46c-1.57,0-2.84,.58-3.79,1.75-.96,1.17-1.43,2.69-1.43,4.57v7.24c0,1.88,.46,3.4,1.39,4.57,.93,1.17,2.15,1.75,3.66,1.75h4.55c1.49,0,2.7-.58,3.64-1.73,.94-1.15,1.41-2.67,1.41-4.55h5.73c0,2.27-.45,4.27-1.35,6-.9,1.73-2.16,3.06-3.79,4-1.63,.94-3.51,1.41-5.64,1.41h-4.55c-2.16,0-4.06-.46-5.71-1.39Z"/><path class="cls-1" d="M40.19,5.39h-9.35V.34h24.51V5.39h-9.35V29.82h-5.81V5.39Zm34.76,17.56h-11.03l-2.61,6.86h-6.06L66.77,.34h5.33l11.47,29.48h-6.06l-2.57-6.86Zm-9.48-4.89h7.92l-3.92-10.61h-.04l-3.96,10.61Zm27.09,10.7c-1.64-.93-2.91-2.24-3.81-3.94-.9-1.7-1.35-3.66-1.35-5.88v-7.75c0-2.22,.46-4.18,1.37-5.88,.91-1.7,2.2-3.01,3.87-3.94,1.67-.93,3.6-1.39,5.79-1.39h4.46c2.11,0,3.96,.45,5.56,1.35,1.6,.9,2.84,2.16,3.73,3.77,.88,1.61,1.33,3.49,1.33,5.62h-5.73c0-1.68-.45-3.04-1.35-4.06-.9-1.02-2.08-1.54-3.54-1.54h-4.46c-1.57,0-2.84,.58-3.79,1.75-.96,1.17-1.43,2.69-1.43,4.57v7.24c0,1.88,.46,3.4,1.39,4.57,.93,1.17,2.15,1.75,3.66,1.75h4.55c1.49,0,2.7-.58,3.64-1.73,.94-1.15,1.41-2.67,1.41-4.55h5.73c0,2.27-.45,4.27-1.35,6-.9,1.73-2.16,3.06-3.79,4-1.63,.94-3.51,1.41-5.64,1.41h-4.55c-2.16,0-4.06-.46-5.71-1.39Z"/></g></g></svg>